<svg width="29" height="24" viewBox="0 0 29 24" fill="none" xmlns="http://www.w3.org/2000/svg">
<path d="M3.70713 23.2348C2.93474 23.2348 2.27376 22.96 1.72419 22.4104C1.17463 21.8608 0.899374 21.1994 0.898438 20.4261V3.57392C0.898438 2.80153 1.17369 2.14055 1.72419 1.59098C2.2747 1.04142 2.93567 0.766165 3.70713 0.765228H26.1767C26.949 0.765228 27.6105 1.04048 28.161 1.59098C28.7115 2.14149 28.9863 2.80247 28.9854 3.57392V20.4261C28.9854 21.1985 28.7106 21.8599 28.161 22.4104C27.6114 22.9609 26.95 23.2357 26.1767 23.2348H3.70713ZM14.9419 13.4043L3.70713 6.38261V20.4261H26.1767V6.38261L14.9419 13.4043ZM14.9419 10.5956L26.1767 3.57392H3.70713L14.9419 10.5956ZM3.70713 6.38261V3.57392V20.4261V6.38261Z" fill="#ffffff" stroke="#000000" stroke-width="0.5"/>
</svg>
