<svg width="61" height="60" viewBox="0 0 61 60" fill="none" xmlns="http://www.w3.org/2000/svg">
<path d="M40.5734 42.6416L45.6959 37.4729C46.3858 36.7854 47.2587 36.3148 48.2086 36.1182C49.1585 35.9216 50.1445 36.0074 51.047 36.3654L57.2899 38.8805C58.2019 39.254 58.9839 39.8916 59.5373 40.7128C60.0908 41.5341 60.3909 42.5023 60.3999 43.4954V55.0326C60.3946 55.7081 60.2539 56.3756 59.9862 56.9949C59.7185 57.6141 59.3293 58.1723 58.8422 58.6358C58.3551 59.0993 57.7801 59.4585 57.1517 59.6918C56.5234 59.9252 55.8547 60.0278 55.186 59.9936C11.4397 57.2477 2.61266 19.8672 0.943296 5.56103C0.865803 4.85849 0.936606 4.14737 1.15105 3.47443C1.36549 2.80149 1.71871 2.18199 2.18747 1.65669C2.65622 1.13139 3.2299 0.712182 3.87075 0.426657C4.5116 0.141132 5.20511 -0.00424375 5.90564 9.43029e-05H16.9509C17.9365 0.0030381 18.8987 0.303448 19.7137 0.862683C20.5288 1.42192 21.1594 2.21441 21.5244 3.13821L24.017 9.43753C24.3835 10.3445 24.477 11.3403 24.2859 12.3006C24.0947 13.2609 23.6274 14.1431 22.9423 14.8369L17.8198 20.0056C17.8198 20.0056 20.7698 40.1496 40.5734 42.6416Z" fill="#ffffff" stroke="#000000" stroke-width="0.5"/>
</svg>
