<svg width="28" height="29" viewBox="0 0 29 28" fill="none" xmlns="http://www.w3.org/2000/svg">
<path d="M24.784 4.07461C23.5006 2.77818 21.9718 1.75028 20.287 1.05086C18.6021 0.351434 16.7948 -0.00550886 14.9706 0.000846332C7.32699 0.000846332 1.09735 6.23049 1.09735 13.8741C1.09735 16.3239 1.74131 18.7038 2.94524 20.8037L0.985352 27.9993L8.33493 26.0674C10.3648 27.1733 12.6467 27.7613 14.9706 27.7613C22.6141 27.7613 28.8438 21.5316 28.8438 13.8881C28.8438 10.1783 27.4019 6.69246 24.784 4.07461ZM14.9706 25.4094C12.8987 25.4094 10.8688 24.8494 9.09089 23.7995L8.67092 23.5475L4.30316 24.6954L5.4651 20.4397L5.18511 20.0057C4.03402 18.1676 3.42281 16.0429 3.42121 13.8741C3.42121 7.51842 8.60092 2.33871 14.9566 2.33871C18.0364 2.33871 20.9342 3.54264 23.1041 5.72652C24.1785 6.79601 25.03 8.06811 25.6091 9.4691C26.1882 10.8701 26.4836 12.3721 26.4779 13.8881C26.5059 20.2437 21.3262 25.4094 14.9706 25.4094ZM21.2982 16.7859C20.9482 16.6179 19.2403 15.7779 18.9323 15.652C18.6104 15.54 18.3864 15.484 18.1484 15.8199C17.9104 16.1699 17.2524 16.9539 17.0564 17.1779C16.8605 17.4159 16.6505 17.4439 16.3005 17.2619C15.9505 17.0939 14.8306 16.7159 13.5146 15.54C12.4787 14.616 11.7927 13.4821 11.5827 13.1321C11.3868 12.7821 11.5548 12.6001 11.7367 12.4181C11.8907 12.2641 12.0867 12.0122 12.2547 11.8162C12.4227 11.6202 12.4927 11.4662 12.6047 11.2422C12.7167 11.0042 12.6607 10.8082 12.5767 10.6402C12.4927 10.4723 11.7927 8.76435 11.5128 8.06439C11.2328 7.39243 10.9388 7.47642 10.7288 7.46242H10.0568C9.81885 7.46242 9.45487 7.54642 9.13289 7.8964C8.82491 8.24638 7.92896 9.08633 7.92896 10.7942C7.92896 12.5021 9.17489 14.154 9.34288 14.378C9.51087 14.616 11.7927 18.1158 15.2645 19.6137C16.0905 19.9777 16.7345 20.1877 17.2384 20.3417C18.0644 20.6077 18.8203 20.5657 19.4223 20.4817C20.0943 20.3837 21.4802 19.6417 21.7602 18.8298C22.0542 18.0178 22.0542 17.3319 21.9562 17.1779C21.8582 17.0239 21.6482 16.9539 21.2982 16.7859Z" fill="#ffffff" stroke="#000000" stroke-width="0.5"/>
</svg>
