<svg width="64" height="64" viewBox="0 0 64 64" fill="none" xmlns="http://www.w3.org/2000/svg">
<path d="M21.7289 47.7372L40.2692 15.5064C40.4132 15.256 40.2325 14.9436 39.9436 14.9436H10.5993C10.1864 14.9436 9.9793 15.4426 10.271 15.735L21.7096 27.2011C21.7313 27.2229 21.7434 27.2523 21.7434 27.2829C21.7434 27.3034 21.738 27.3235 21.7277 27.3412L10.413 46.7669L10.3342 46.9004C9.95737 47.5384 10.4173 48.3442 11.1583 48.3442H20.6796C21.1128 48.3442 21.5129 48.1127 21.7289 47.7372Z" stroke="#375B9B" stroke-width="2.42107"/>
<path d="M54.1591 27.3829C54.7506 20.7303 49.5582 15.6258 47.2451 14.9983C46.8886 14.9016 46.5616 15.1303 46.3777 15.4506L27.6146 48.1274C27.5592 48.2239 27.6289 48.3442 27.7401 48.3442H53.824C54.1711 48.3442 54.3469 47.9263 54.1042 47.6782L44.9055 38.2723C44.8445 38.2099 44.8557 38.1074 44.9287 38.0596C44.9416 38.0511 44.9552 38.0451 44.9702 38.0413C47.8449 37.3154 53.5127 34.6521 54.1591 27.3829Z" stroke="#375B9B" stroke-width="2.42107"/>
</svg>
