<svg width="206" height="26" viewBox="0 0 206 26" fill="none" xmlns="http://www.w3.org/2000/svg">
<path d="M17.7702 0.99444C18.1161 0.446777 18.5485 0.172946 19.0673 0.172946C19.615 0.172946 20.0329 0.33148 20.3212 0.648548C20.6094 0.965615 20.7535 1.32592 20.7535 1.72946C20.7535 2.133 20.6526 2.47889 20.4509 2.76714L11.9765 14.6139V23.6504C11.9765 24.0827 11.818 24.4575 11.5009 24.7745C11.1838 25.0916 10.8091 25.2501 10.3768 25.2501C9.9444 25.2501 9.55527 25.0916 9.20938 24.7745C8.89231 24.4575 8.73378 24.0827 8.73378 23.6504V14.6139L0.259419 2.76714C0.086473 2.47889 0 2.133 0 1.72946C0 1.32592 0.129709 0.965615 0.389129 0.648548C0.677372 0.33148 1.08091 0.172946 1.59975 0.172946C2.14741 0.172946 2.6086 0.446777 2.98332 0.99444L10.3768 11.7603L17.7702 0.99444Z" fill="#375B9B"/>
<path d="M25.8779 0.172946C26.3103 0.172946 26.685 0.33148 27.0021 0.648548C27.348 0.965615 27.5209 1.35474 27.5209 1.81593V23.6504C27.5209 24.0827 27.3624 24.4575 27.0453 24.7745C26.7282 25.0916 26.3391 25.2501 25.8779 25.2501C25.4456 25.2501 25.0708 25.0916 24.7538 24.7745C24.4367 24.4575 24.2782 24.0827 24.2782 23.6504V1.81593C24.2782 1.38357 24.4367 1.00885 24.7538 0.691784C25.0708 0.345892 25.4456 0.172946 25.8779 0.172946Z" fill="#375B9B"/>
<path d="M61.8092 23.6504C61.8092 24.0827 61.6507 24.4575 61.3336 24.7745C61.0453 25.0916 60.6562 25.2501 60.1662 25.2501C59.705 25.2501 59.3159 25.106 58.9988 24.8178C58.7106 24.5295 58.5664 24.1404 58.5664 23.6504V22.5695C58.5664 20.6671 58.3503 19.2691 57.9179 18.3755C57.5144 17.482 56.9379 16.7758 56.1884 16.2569C55.4678 15.7093 54.4302 15.4354 53.0754 15.4354H45.7684V23.6504C45.7684 24.0827 45.6099 24.4575 45.2928 24.7745C44.9758 25.0916 44.5866 25.2501 44.1255 25.2501C43.6931 25.2501 43.3184 25.0916 43.0013 24.7745C42.6842 24.4575 42.5257 24.0827 42.5257 23.6504V1.98888C42.5257 1.55651 42.6842 1.1818 43.0013 0.86473C43.3184 0.518838 43.6931 0.345892 44.1255 0.345892H52.3836C55.6119 0.345892 58.062 1.03768 59.7338 2.42124C61.2903 3.71834 62.0542 5.41898 62.0254 7.52315C62.0254 8.8779 61.6362 10.1606 60.858 11.3712C60.1085 12.553 58.9412 13.4033 57.3558 13.9222C59.0565 14.3545 60.2959 15.594 61.0742 17.6405C61.593 18.9664 61.838 20.4365 61.8092 22.0506V23.6504ZM52.1674 12.3656C54.1563 12.3656 55.7561 11.9909 56.9667 11.2415C58.1773 10.4632 58.7826 9.31026 58.7826 7.78257C58.7826 6.37018 58.307 5.30368 57.3558 4.58307C56.2317 3.77599 54.4446 3.37245 51.9945 3.37245H45.7684V12.3656H52.1674Z" fill="#375B9B"/>
<path d="M68.836 3.54539C71.0843 1.1818 74.082 0 77.8292 0C81.5763 0 84.5741 1.1818 86.8224 3.54539C89.013 5.88017 90.1516 8.93554 90.238 12.7115C90.1516 16.4587 89.013 19.5141 86.8224 21.8777C84.5741 24.2413 81.5763 25.4231 77.8292 25.4231C74.082 25.4231 71.0843 24.2413 68.836 21.8777C66.5877 19.5141 65.4347 16.4587 65.3771 12.7115C65.4347 8.96437 66.5877 5.90899 68.836 3.54539ZM77.8292 22.3965C80.7116 22.3965 82.9743 21.4741 84.6173 19.6294C86.2315 17.8423 87.0386 15.5363 87.0386 12.7115C87.0386 9.88675 86.2315 7.5808 84.6173 5.79369C82.9455 3.92011 80.6828 2.99773 77.8292 3.02656C74.9467 3.02656 72.6696 3.94893 70.9978 5.79369C69.3836 7.5808 68.591 9.88675 68.6198 12.7115C68.6198 15.5363 69.4125 17.8423 70.9978 19.6294C72.6696 21.4741 74.9467 22.3965 77.8292 22.3965Z" fill="#375B9B"/>
<path d="M119.705 0.172946C120.368 0.172946 120.915 0.403541 121.348 0.86473C121.809 1.32592 122.039 1.87358 122.039 2.50772V23.6504C122.039 24.0827 121.881 24.4575 121.564 24.7745C121.247 25.0916 120.872 25.2501 120.44 25.2501C120.007 25.2501 119.633 25.0916 119.315 24.7745C118.998 24.4575 118.84 24.0827 118.84 23.6504V3.54539L110.625 23.7801C110.452 24.2124 110.164 24.5727 109.76 24.861C109.357 25.1204 108.895 25.2501 108.377 25.2501C107.858 25.2501 107.397 25.1204 106.993 24.861C106.59 24.6016 106.287 24.2413 106.085 23.7801L97.9134 3.54539V23.6504C97.9134 24.0827 97.7549 24.4575 97.4378 24.7745C97.1207 25.0916 96.7316 25.2501 96.2704 25.2501C95.838 25.2501 95.4633 25.0916 95.1463 24.7745C94.8292 24.4575 94.6707 24.0827 94.6707 23.6504V2.50772C94.6707 1.87358 94.8868 1.32592 95.3192 0.86473C95.7804 0.403541 96.3425 0.172946 97.0054 0.172946H98.1728C98.634 0.172946 99.052 0.317068 99.4267 0.605311C99.8302 0.893555 100.133 1.23945 100.335 1.64299L108.377 21.7047L116.419 1.64299C116.592 1.23945 116.865 0.893555 117.24 0.605311C117.644 0.317068 118.09 0.172946 118.58 0.172946H119.705Z" fill="#375B9B"/>
<path d="M148.177 22.9586C148.292 23.2468 148.35 23.5495 148.35 23.8666C148.35 24.1548 148.206 24.4575 147.917 24.7745C147.658 25.0916 147.211 25.2501 146.577 25.2501C145.972 25.2501 145.525 24.9186 145.237 24.2557L142.945 18.7646H130.882L128.634 24.2557C128.346 24.9186 127.884 25.2501 127.25 25.2501C126.645 25.2501 126.198 25.0916 125.91 24.7745C125.65 24.4575 125.521 24.1548 125.521 23.8666C125.521 23.5495 125.578 23.2468 125.694 22.9586L134.687 1.64299C135.09 0.66296 135.782 0.172946 136.762 0.172946H137.108C138.059 0.172946 138.751 0.66296 139.184 1.64299L148.177 22.9586ZM141.734 15.8246L136.935 4.28041L132.136 15.8246H141.734Z" fill="#375B9B"/>
<path d="M171.028 23.6504C171.028 24.0827 170.87 24.4575 170.552 24.7745C170.264 25.0916 169.875 25.2501 169.385 25.2501C168.924 25.2501 168.535 25.106 168.218 24.8178C167.929 24.5295 167.785 24.1404 167.785 23.6504V22.5695C167.785 20.6671 167.569 19.2691 167.137 18.3755C166.733 17.482 166.157 16.7758 165.407 16.2569C164.687 15.7093 163.649 15.4354 162.294 15.4354H154.987V23.6504C154.987 24.0827 154.829 24.4575 154.512 24.7745C154.195 25.0916 153.806 25.2501 153.344 25.2501C152.912 25.2501 152.537 25.0916 152.22 24.7745C151.903 24.4575 151.745 24.0827 151.745 23.6504V1.98888C151.745 1.55651 151.903 1.1818 152.22 0.86473C152.537 0.518838 152.912 0.345892 153.344 0.345892H161.602C164.831 0.345892 167.281 1.03768 168.953 2.42124C170.509 3.71834 171.273 5.41898 171.244 7.52315C171.244 8.8779 170.855 10.1606 170.077 11.3712C169.327 12.553 168.16 13.4033 166.575 13.9222C168.275 14.3545 169.515 15.594 170.293 17.6405C170.812 18.9664 171.057 20.4365 171.028 22.0506V23.6504ZM161.386 12.3656C163.375 12.3656 164.975 11.9909 166.186 11.2415C167.396 10.4632 168.002 9.31026 168.002 7.78257C168.002 6.37018 167.526 5.30368 166.575 4.58307C165.451 3.77599 163.663 3.37245 161.213 3.37245H154.987V12.3656H161.386Z" fill="#375B9B"/>
<path d="M177.666 0.172946C178.098 0.172946 178.473 0.33148 178.79 0.648548C179.136 0.965615 179.309 1.35474 179.309 1.81593V23.6504C179.309 24.0827 179.15 24.4575 178.833 24.7745C178.516 25.0916 178.127 25.2501 177.666 25.2501C177.233 25.2501 176.859 25.0916 176.542 24.7745C176.225 24.4575 176.066 24.0827 176.066 23.6504V1.81593C176.066 1.38357 176.225 1.00885 176.542 0.691784C176.859 0.345892 177.233 0.172946 177.666 0.172946Z" fill="#375B9B"/>
<path d="M202.982 20.6671C203.155 20.5806 203.414 20.5373 203.76 20.5373C204.106 20.5373 204.408 20.6815 204.668 20.9697C204.927 21.2291 205.057 21.5318 205.057 21.8777C205.057 22.5118 204.783 22.973 204.235 23.2612C203.14 23.8954 201.958 24.4142 200.69 24.8178C199.451 25.2213 197.937 25.4231 196.15 25.4231C194.392 25.4231 192.749 25.1348 191.221 24.5583C189.722 23.9818 188.425 23.1459 187.33 22.0506C184.966 19.7447 183.785 16.6316 183.785 12.7115C183.785 8.82025 184.966 5.70722 187.33 3.37245C189.607 1.12415 192.562 0 196.193 0C197.952 0 199.451 0.216183 200.69 0.648548C201.958 1.08091 202.924 1.48445 203.587 1.85917C204.25 2.20506 204.653 2.49331 204.798 2.7239C204.97 2.92567 205.057 3.1995 205.057 3.54539C205.057 3.89129 204.927 4.20835 204.668 4.4966C204.408 4.75602 204.106 4.88573 203.76 4.88573C203.443 4.88573 203.183 4.84249 202.982 4.75602C202.03 4.23718 201.05 3.83364 200.041 3.54539C199.061 3.22833 197.836 3.06979 196.366 3.06979C194.896 3.06979 193.556 3.32921 192.345 3.84805C191.164 4.33806 190.169 5.01544 189.362 5.88017C187.777 7.60963 186.998 9.88675 187.027 12.7115C187.027 15.5363 187.806 17.8134 189.362 19.5429C191.092 21.4165 193.47 22.3533 196.496 22.3533C197.88 22.3533 199.061 22.2092 200.041 21.9209C201.05 21.6038 202.03 21.1859 202.982 20.6671Z" fill="#375B9B"/>
</svg>
